<svg width="166" height="41" viewBox="0 0 166 41" fill="none" xmlns="http://www.w3.org/2000/svg">
<g clip-path="url(#clip0_30_74)">
<path d="M27.5763 28.8055L27.5782 10.7252C27.5783 9.78463 27.7867 9.07919 28.2296 8.60889C28.6464 8.13859 29.2195 7.90344 29.8967 7.90344C30.6 7.90344 31.173 8.13859 31.5897 8.60889C32.0325 9.07919 32.2408 9.78463 32.2407 10.7252L32.2388 28.8055C32.2387 29.7461 32.0303 30.4777 31.5874 30.948C31.1445 31.4183 30.5975 31.6534 29.8942 31.6534C29.217 31.6534 28.67 31.4183 28.2533 30.948C27.8106 30.4516 27.5762 29.7461 27.5763 28.8055Z" fill="white"/>
<path d="M153.62 31.6273C147.108 31.6273 141.795 26.2973 141.796 19.7654C141.796 13.2335 147.111 7.90344 153.622 7.90344C160.134 7.90344 165.448 13.2335 165.447 19.7654C165.446 26.3234 160.158 31.6273 153.62 31.6273ZM153.622 12.7109C149.741 12.7109 146.589 15.8724 146.588 19.7654C146.588 23.6584 149.739 26.8198 153.621 26.8198C157.502 26.8198 160.654 23.6584 160.654 19.7654C160.654 15.8985 157.503 12.7109 153.622 12.7109Z" fill="white"/>
<path d="M100.561 31.6273C94.0493 31.6273 88.7361 26.2973 88.7368 19.7654C88.7375 13.2335 94.0517 7.90344 100.564 7.90344C107.075 7.90344 112.389 13.2335 112.388 19.7654C112.387 26.3234 107.073 31.6273 100.561 31.6273ZM100.563 12.7109C96.682 12.7109 93.5299 15.8724 93.5295 19.7654C93.5291 23.6584 96.6806 26.8198 100.562 26.8198C104.443 26.8198 107.595 23.6584 107.595 19.7654C107.596 15.8985 104.444 12.7109 100.563 12.7109Z" fill="white"/>
<path d="M138.019 19.7654C138.019 17.1526 137.16 14.7227 135.727 12.7632C133.644 9.91527 130.31 8.03408 126.533 7.90344C126.403 7.90344 126.299 7.90344 126.168 7.90344H120.229C119.214 7.90344 118.484 8.13859 118.041 8.60889C117.599 9.07919 117.364 9.81076 117.364 10.8559L117.362 28.701C117.362 29.7461 117.596 30.4777 118.039 30.948C118.482 31.4183 119.237 31.6534 120.227 31.6534H126.166C126.296 31.6534 126.4 31.6534 126.53 31.6534C130.307 31.5489 133.616 29.6677 135.726 26.7937C137.159 24.808 138.018 22.3781 138.019 19.7654ZM127.026 26.7676C126.453 26.7937 125.828 26.8198 125.177 26.8198H122.077L122.078 12.7109H125.178C125.829 12.7109 126.454 12.7109 127.027 12.7632C129.085 12.9983 130.856 14.1479 131.976 15.7679C132.757 16.8913 133.226 18.2761 133.226 19.7654C133.226 21.2547 132.757 22.6133 131.975 23.7368C130.855 25.4089 129.084 26.5324 127.026 26.7676Z" fill="white"/>
<path d="M82.0437 8.00789C81.1842 7.74661 80.2465 8.08627 79.7515 8.84397L72.6133 19.7392L65.4774 8.84397C64.9826 8.08627 64.0449 7.74661 63.1854 8.00789C62.3258 8.26917 61.7266 9.10525 61.7265 10.0197L61.7245 29.3803C61.7244 30.5299 62.6359 31.4966 63.782 31.4966C64.9021 31.4966 65.8399 30.556 65.84 29.3803L65.8413 16.9174L70.8937 24.6512C70.8937 24.6512 70.8937 24.6512 70.8937 24.6773C70.8937 24.6773 70.8937 24.7034 70.9197 24.7034C70.9458 24.7557 70.9718 24.8079 71.0239 24.8341C71.05 24.8602 71.05 24.8602 71.076 24.8863C71.102 24.9125 71.1281 24.9647 71.1541 24.9908C71.1802 25.017 71.2062 25.0431 71.2323 25.0692C71.2583 25.0953 71.2843 25.0953 71.2843 25.1215C71.3364 25.1476 71.3625 25.1737 71.4146 25.226L71.4406 25.2521C71.4927 25.2782 71.5448 25.3044 71.5709 25.3305C71.5969 25.3305 71.5969 25.3566 71.5969 25.3566C71.623 25.3827 71.675 25.3827 71.7011 25.4089C71.9095 25.5134 72.1178 25.5656 72.3523 25.5918C72.4043 25.5918 72.4304 25.5918 72.4825 25.5918C72.5085 25.5918 72.5346 25.5918 72.5606 25.5918C72.5867 25.5918 72.6127 25.5918 72.6388 25.5918C72.6909 25.5918 72.7169 25.5918 72.769 25.5918C72.9774 25.5656 73.2118 25.5134 73.4202 25.4089C73.4463 25.3827 73.4984 25.3827 73.5244 25.3566L73.5505 25.3305C73.6026 25.3044 73.6547 25.2782 73.6807 25.2521C73.7068 25.2521 73.7068 25.226 73.7068 25.226C73.7588 25.1999 73.7849 25.1737 73.837 25.1215C73.8631 25.0953 73.8891 25.0953 73.8891 25.0692C73.9152 25.0431 73.9412 25.017 73.9673 24.9908C73.9933 24.9647 74.0194 24.9386 74.0454 24.8863C74.0715 24.8602 74.0715 24.8602 74.0975 24.8341C74.1236 24.7818 74.1757 24.7557 74.2017 24.7034L74.2278 24.6773C74.2278 24.6773 74.2278 24.6773 74.2278 24.6512L79.2818 16.9174L79.2805 29.3803C79.2804 30.5299 80.1919 31.4966 81.338 31.4966C82.4581 31.4966 83.3959 30.556 83.396 29.3803L83.398 10.0197C83.5023 9.10525 82.9033 8.26917 82.0437 8.00789Z" fill="white"/>
<path d="M54.7436 30.9219H39.4016C38.5941 30.9219 37.7086 30.4254 37.37 29.6416C37.0315 28.8578 36.9795 27.7865 37.6829 26.9243L50.2133 12.319H39.8464C38.7263 12.319 37.7887 11.3262 37.7888 10.1243C37.7889 8.92242 38.7007 8.16472 39.8468 8.16472H53.8082C54.6157 8.16472 55.4492 8.29536 56.1785 9.10531C56.8556 9.83688 56.8034 11.4307 56.0739 12.3713L43.9604 26.5324H54.7441C55.8901 26.5324 56.6975 27.5253 56.6974 28.7271C56.6973 29.929 55.8897 30.9219 54.7436 30.9219Z" fill="white"/>
<path d="M12.3121 31.6273C8.89989 31.6273 5.82642 30.2687 3.61263 27.8127C1.68534 25.6702 0.565592 22.8223 0.565884 20.0005C0.566797 11.1955 7.86045 7.90344 12.4709 7.90344C17.0031 7.90344 20.3109 10.1243 20.4672 10.2288C21.483 10.9342 21.7694 12.319 21.066 13.3641C20.3886 14.4092 19.0081 14.6705 17.9923 13.9912C17.9402 13.965 15.57 12.4235 12.4704 12.4235C9.57912 12.4235 5.59364 14.3308 5.59306 20.0005C5.59272 23.2142 7.9887 27.0288 12.3647 27.0288C14.8392 27.0288 16.5584 26.3757 17.5743 25.7225L17.5747 22.3781H14.1885C12.9643 22.3781 11.9746 21.3592 11.9747 20.1312C11.9748 18.877 12.9647 17.8842 14.189 17.8842H19.8413C21.0655 17.8842 22.0552 18.9032 22.0551 20.1312L22.0544 26.846C22.0543 27.4469 21.8198 28.0478 21.377 28.4659C19.8921 29.929 16.61 31.6273 12.3121 31.6273Z" fill="white"/>
</g>
<defs>
<clipPath id="clip0_30_74">
<rect width="165" height="40" fill="white" transform="matrix(1 0 -0.000103703 1 0.567871 0.403442)"/>
</clipPath>
</defs>
</svg>
