<svg width="291" height="78" viewBox="0 0 291 78" fill="none" xmlns="http://www.w3.org/2000/svg">
<rect x="235.291" y="75.6891" width="128.146" height="54" rx="27" transform="rotate(-174.661 235.291 75.6891)" fill="#3535FF"/>
<path d="M133.217 55.6045L130.839 64.9237L129.969 68.8598L122.967 63.1837L118.268 59.7314L114.113 55.8279L111.047 51.0218L109.069 45.313L108.041 40.1951L108.367 36.7103L109.423 30.7829L113.108 23.5946L119.733 17.1832L127.121 13.354C128.661 12.9958 139.386 11.0853 139.349 11.4836L128.554 19.5141L130.113 29.7033L126.275 43.9078L133.217 55.6045Z" fill="black" stroke="black"/>
<path d="M219.531 34.3354C224.714 34.8197 228.404 36.9217 230.69 40.0017C232.969 43.0723 233.812 47.0569 233.421 51.2391L232.095 65.4293L221.244 64.4153L222.455 51.4493C222.614 49.7486 222.42 48.2152 221.803 47.0864C221.202 45.9879 220.175 45.2258 218.528 45.0718C216.88 44.9179 215.731 45.4766 214.936 46.4448C214.12 47.4396 213.646 48.9105 213.487 50.6112L212.275 63.5772L201.425 62.5632L202.751 48.3731C203.142 44.191 204.707 40.4312 207.516 37.8361C210.333 35.2331 214.349 33.8512 219.531 34.3354Z" fill="white" stroke="#170D0D"/>
<path d="M185.842 30.9065C190.466 31.3387 193.929 33.4306 196.139 36.4001C198.344 39.362 199.281 43.1676 198.922 47.0048L198.642 50.0074L190.969 49.2904L197.966 53.7106L198.371 53.9662L198.133 54.3814C195.197 59.5092 190.063 62.2879 183.738 61.6968C179.245 61.277 175.426 59.3929 172.839 56.4128C170.25 53.4298 168.923 49.3806 169.361 44.6916C170.134 36.4219 176.897 30.0706 185.842 30.9065ZM179.753 48.2422C180.001 49.2794 180.487 50.1325 181.168 50.7755C181.982 51.5442 183.105 52.0423 184.517 52.1742C186.945 52.4012 188.975 51.2504 190.068 49.3386L190.14 49.2129L179.753 48.2422ZM184.838 40.4639C183.048 40.2966 181.687 41.0583 180.9 42.1232L188.187 42.8042C187.718 41.6574 186.58 40.6267 184.838 40.4639Z" fill="white" stroke="#170D0D"/>
<path d="M151.764 15.9312L149.616 38.9189L150.728 39.0228C150.939 38.6853 151.183 38.3272 151.5 38.0092L158.848 29.7125L159.016 29.5222L171.938 30.7298L171.25 31.4737L159.651 44.0113L168.654 58.6979L169.177 59.55L156.373 58.3536L156.244 58.1316L150.532 48.3331L150.53 48.3299C150.341 47.9997 150.149 47.6223 150.005 47.2588L148.847 47.1506L147.874 57.5594L137.024 56.5455L140.914 14.9173L151.764 15.9312Z" fill="white" stroke="#170D0D"/>
<rect y="23.5743" width="130" height="54" rx="27" transform="rotate(-10 0 23.5743)" fill="#3535FF"/>
<path d="M93.9676 25.5644C102.51 24.0581 110.226 29.6303 111.66 37.7614C113.103 45.9454 107.759 53.8214 99.2157 55.3279C90.6723 56.8341 82.9578 51.2607 81.5147 43.0768C80.081 34.9458 85.4255 27.0708 93.9676 25.5644ZM95.7563 35.7086C93.0431 36.1873 91.5872 38.636 92.0523 41.2743C92.5073 43.8551 94.7104 45.6624 97.427 45.1836C100.144 44.7045 101.597 42.2525 101.142 39.6716C100.676 37.0332 98.4698 35.2302 95.7563 35.7086Z" fill="white" stroke="#170D0D"/>
<path d="M79.5234 40.0981L78.7211 39.8221C77.4077 39.3705 75.8363 39.2766 74.5911 39.4962C73.4409 39.699 72.6297 40.1884 72.1497 40.8687C71.6703 41.5483 71.4716 42.4891 71.6838 43.6927L74.3604 58.8726L63.8324 60.729L61.0985 45.224C60.4476 41.5329 60.8858 37.9843 62.6419 35.1487C64.4045 32.3026 67.4549 30.2393 71.8917 29.4569C73.7374 29.1315 75.8322 29.1032 77.3532 29.4885L77.6667 29.5681L79.5234 40.0981Z" fill="white" stroke="#170D0D"/>
<path d="M33.8149 24.212L36.0813 37.0655C37.4948 36.055 39.1736 35.2817 40.9445 34.9695C45.2746 34.206 49.181 35.0418 52.207 37.2168C55.2317 39.391 57.332 42.8707 58.1156 47.3139C59.5497 55.4475 54.1922 63.2669 45.6523 64.7727C36.9055 66.3148 29.4817 61.2014 27.9703 52.6294L23.2869 26.0684L33.8149 24.212ZM42.2024 45.2074C39.4859 45.6866 38.0338 48.1384 38.4888 50.7191C38.9528 53.3507 41.1438 55.1078 43.8635 54.6284C46.5835 54.1488 48.0421 51.7481 47.5781 49.1165C47.123 46.5356 44.9191 44.7283 42.2024 45.2074Z" fill="white" stroke="#170D0D"/>
<path d="M104.783 0.735437L113.031 4.35428L118.46 6.43436L118.488 6.44516L118.515 6.45937L123.554 9.12478L123.61 9.15364L123.656 9.19607L127.884 13.0199L127.928 13.0589L131.378 18.0898L131.397 18.1182L131.412 18.1483L133.758 22.8119L133.791 22.8774L134.415 26.4165L134.417 26.438L134.966 32.4337L134.973 32.5078L134.958 32.581L133.306 40.488L133.289 40.5692L133.247 40.6401L128.554 48.5757L128.516 48.6388L128.463 48.6889L122.35 54.3361L122.304 54.3779L122.249 54.4085C121.538 54.7938 118.717 56.1581 116.076 57.3721C114.754 57.9802 113.467 58.5551 112.505 58.9538C112.025 59.1524 111.615 59.3111 111.319 59.4089C111.175 59.4563 111.035 59.4974 110.92 59.5168C110.869 59.5254 110.78 59.537 110.685 59.5246C110.624 59.5167 110.286 59.4559 110.222 59.0936L110.183 58.8743L110.32 58.6985L118.42 48.3347L114.344 39.1966L114.301 39.1L114.301 38.995L114.245 24.4913L104.609 15.1952L104.46 15.0519L104.456 14.8444L104.284 5.22822L104.082 1.21789L104.042 0.409882L104.783 0.735437Z" fill="black"/>
</svg>
