<svg width="125" height="24" viewBox="0 0 125 24" fill="none" xmlns="http://www.w3.org/2000/svg">
<path d="M10.8945 15.8955H15.1572C15.0986 17.4971 14.7764 18.8496 14.1904 19.9531C13.6045 21.0469 12.7695 21.877 11.6855 22.4434C10.6113 23.0098 9.3125 23.293 7.78906 23.293C6.60742 23.293 5.55762 23.0977 4.63965 22.707C3.72168 22.3066 2.94043 21.7207 2.2959 20.9492C1.65137 20.1777 1.16309 19.2256 0.831055 18.0928C0.508789 16.9502 0.347656 15.6367 0.347656 14.1523V10.5342C0.347656 9.0498 0.518555 7.73633 0.860352 6.59375C1.21191 5.45117 1.70996 4.49414 2.35449 3.72266C3.00879 2.94141 3.79492 2.35547 4.71289 1.96484C5.64062 1.56445 6.68555 1.36426 7.84766 1.36426C9.40039 1.36426 10.6992 1.65723 11.7441 2.24316C12.7891 2.8291 13.5947 3.68359 14.1611 4.80664C14.7373 5.91992 15.084 7.28223 15.2012 8.89355H10.9092C10.8896 7.87793 10.7773 7.08203 10.5723 6.50586C10.377 5.91992 10.0645 5.50977 9.63477 5.27539C9.20508 5.03125 8.60938 4.90918 7.84766 4.90918C7.28125 4.90918 6.79297 5.01172 6.38281 5.2168C5.97266 5.41211 5.63574 5.72949 5.37207 6.16895C5.1084 6.6084 4.91309 7.18457 4.78613 7.89746C4.66895 8.61035 4.61035 9.47949 4.61035 10.5049V14.1523C4.61035 15.1582 4.66406 16.0176 4.77148 16.7305C4.87891 17.4336 5.0498 18.0098 5.28418 18.459C5.51855 18.9082 5.83594 19.2354 6.23633 19.4404C6.64648 19.6455 7.16406 19.748 7.78906 19.748C8.51172 19.748 9.09277 19.6406 9.53223 19.4258C9.98145 19.2109 10.3135 18.8252 10.5283 18.2686C10.7432 17.7119 10.8652 16.9209 10.8945 15.8955ZM17.1641 15.6172V14.5479C17.1641 13.3076 17.3105 12.209 17.6035 11.252C17.9062 10.2949 18.3359 9.49414 18.8926 8.84961C19.4492 8.19531 20.1182 7.70215 20.8994 7.37012C21.6904 7.02832 22.5742 6.85742 23.5508 6.85742C24.5371 6.85742 25.4209 7.02832 26.2021 7.37012C26.9932 7.70215 27.667 8.19531 28.2236 8.84961C28.79 9.49414 29.2246 10.2949 29.5273 11.252C29.8301 12.209 29.9814 13.3076 29.9814 14.5479V15.6172C29.9814 16.8477 29.8301 17.9414 29.5273 18.8984C29.2246 19.8555 28.79 20.6611 28.2236 21.3154C27.667 21.9697 26.998 22.4629 26.2168 22.7949C25.4355 23.127 24.5566 23.293 23.5801 23.293C22.6035 23.293 21.7197 23.127 20.9287 22.7949C20.1475 22.4629 19.4736 21.9697 18.9072 21.3154C18.3408 20.6611 17.9062 19.8555 17.6035 18.8984C17.3105 17.9414 17.1641 16.8477 17.1641 15.6172ZM21.2656 14.5479V15.6172C21.2656 16.3496 21.3145 16.9844 21.4121 17.5215C21.5195 18.0586 21.6709 18.5029 21.8662 18.8545C22.0713 19.2061 22.3154 19.4648 22.5986 19.6309C22.8818 19.7969 23.209 19.8799 23.5801 19.8799C23.9512 19.8799 24.2832 19.7969 24.5762 19.6309C24.8691 19.4648 25.1084 19.2061 25.2939 18.8545C25.4893 18.5029 25.6309 18.0586 25.7188 17.5215C25.8164 16.9844 25.8652 16.3496 25.8652 15.6172V14.5479C25.8652 13.835 25.8115 13.21 25.7041 12.6729C25.5967 12.126 25.4453 11.6816 25.25 11.3398C25.0547 10.9883 24.8105 10.7246 24.5176 10.5488C24.2344 10.3633 23.9121 10.2705 23.5508 10.2705C23.1895 10.2705 22.8672 10.3633 22.584 10.5488C22.3105 10.7246 22.0713 10.9883 21.8662 11.3398C21.6709 11.6816 21.5195 12.126 21.4121 12.6729C21.3145 13.21 21.2656 13.835 21.2656 14.5479ZM37.0713 1.67188V23H32.7793V1.67188H37.0713ZM43.751 10.7393V14.2842H35.9873V10.7393H43.751ZM44.5713 1.67188V5.23145H35.9873V1.67188H44.5713ZM46.0801 15.6172V14.5479C46.0801 13.3076 46.2266 12.209 46.5195 11.252C46.8223 10.2949 47.252 9.49414 47.8086 8.84961C48.3652 8.19531 49.0342 7.70215 49.8154 7.37012C50.6064 7.02832 51.4902 6.85742 52.4668 6.85742C53.4531 6.85742 54.3369 7.02832 55.1182 7.37012C55.9092 7.70215 56.583 8.19531 57.1396 8.84961C57.7061 9.49414 58.1406 10.2949 58.4434 11.252C58.7461 12.209 58.8975 13.3076 58.8975 14.5479V15.6172C58.8975 16.8477 58.7461 17.9414 58.4434 18.8984C58.1406 19.8555 57.7061 20.6611 57.1396 21.3154C56.583 21.9697 55.9141 22.4629 55.1328 22.7949C54.3516 23.127 53.4727 23.293 52.4961 23.293C51.5195 23.293 50.6357 23.127 49.8447 22.7949C49.0635 22.4629 48.3896 21.9697 47.8232 21.3154C47.2568 20.6611 46.8223 19.8555 46.5195 18.8984C46.2266 17.9414 46.0801 16.8477 46.0801 15.6172ZM50.1816 14.5479V15.6172C50.1816 16.3496 50.2305 16.9844 50.3281 17.5215C50.4355 18.0586 50.5869 18.5029 50.7822 18.8545C50.9873 19.2061 51.2314 19.4648 51.5146 19.6309C51.7979 19.7969 52.125 19.8799 52.4961 19.8799C52.8672 19.8799 53.1992 19.7969 53.4922 19.6309C53.7852 19.4648 54.0244 19.2061 54.21 18.8545C54.4053 18.5029 54.5469 18.0586 54.6348 17.5215C54.7324 16.9844 54.7812 16.3496 54.7812 15.6172V14.5479C54.7812 13.835 54.7275 13.21 54.6201 12.6729C54.5127 12.126 54.3613 11.6816 54.166 11.3398C53.9707 10.9883 53.7266 10.7246 53.4336 10.5488C53.1504 10.3633 52.8281 10.2705 52.4668 10.2705C52.1055 10.2705 51.7832 10.3633 51.5 10.5488C51.2266 10.7246 50.9873 10.9883 50.7822 11.3398C50.5869 11.6816 50.4355 12.126 50.3281 12.6729C50.2305 13.21 50.1816 13.835 50.1816 14.5479ZM69.1514 19.1914V7.15039H73.2676V23H69.4004L69.1514 19.1914ZM69.6201 15.9248L70.7627 15.8955C70.7627 16.96 70.6602 17.9463 70.4551 18.8545C70.25 19.7529 69.9424 20.5342 69.5322 21.1982C69.1318 21.8623 68.6191 22.3799 67.9941 22.751C67.3789 23.1123 66.6514 23.293 65.8115 23.293C65.167 23.293 64.5713 23.1855 64.0244 22.9707C63.4873 22.7461 63.0234 22.3994 62.6328 21.9307C62.2422 21.4521 61.9346 20.8418 61.71 20.0996C61.4951 19.3477 61.3877 18.4492 61.3877 17.4043V7.15039H65.5039V17.4336C65.5039 17.8633 65.5381 18.2344 65.6064 18.5469C65.6846 18.8496 65.792 19.0986 65.9287 19.2939C66.0752 19.4893 66.2412 19.6309 66.4268 19.7188C66.6123 19.7969 66.8223 19.8359 67.0566 19.8359C67.7012 19.8359 68.209 19.6699 68.5801 19.3379C68.9609 18.9961 69.2295 18.5322 69.3857 17.9463C69.542 17.3506 69.6201 16.6768 69.6201 15.9248ZM80.2842 10.5342V23H76.168V7.15039H80.0059L80.2842 10.5342ZM79.6689 14.5332L78.5703 14.5625C78.5508 13.3711 78.6631 12.3018 78.9072 11.3545C79.1611 10.4072 79.5176 9.60156 79.9766 8.9375C80.4453 8.26367 81.002 7.75098 81.6465 7.39941C82.291 7.03809 83.0186 6.85742 83.8291 6.85742C84.4443 6.85742 85.0059 6.96484 85.5137 7.17969C86.0312 7.39453 86.4756 7.73633 86.8467 8.20508C87.2178 8.67383 87.5059 9.29395 87.7109 10.0654C87.916 10.8369 88.0186 11.7891 88.0186 12.9219V23H83.9023V12.8926C83.9023 12.209 83.834 11.6816 83.6973 11.3105C83.5605 10.9297 83.3555 10.666 83.082 10.5195C82.8184 10.3633 82.4766 10.2852 82.0566 10.2852C81.666 10.2852 81.3193 10.3926 81.0166 10.6074C80.7139 10.8223 80.46 11.125 80.2549 11.5156C80.0596 11.8965 79.9082 12.3457 79.8008 12.8633C79.7031 13.3809 79.6592 13.9375 79.6689 14.5332ZM98.6973 19.499V0.5H102.813V23L99.0928 23.0146L98.6973 19.499ZM90.4795 15.6318V14.5771C90.4795 13.2881 90.5869 12.1602 90.8018 11.1934C91.0264 10.2266 91.3584 9.4209 91.7979 8.77637C92.2373 8.13184 92.7744 7.65332 93.4092 7.34082C94.0537 7.01855 94.791 6.85742 95.6211 6.85742C96.373 6.85742 97.0322 7.04785 97.5986 7.42871C98.1748 7.7998 98.6631 8.32227 99.0635 8.99609C99.4639 9.66992 99.7861 10.4658 100.03 11.3838C100.274 12.3018 100.445 13.3076 100.543 14.4014V15.9248C100.426 16.96 100.245 17.9268 100.001 18.8252C99.7666 19.7236 99.4443 20.5049 99.0342 21.1689C98.6338 21.833 98.1504 22.3555 97.584 22.7363C97.0176 23.1074 96.3584 23.293 95.6064 23.293C94.7764 23.293 94.0391 23.127 93.3945 22.7949C92.7598 22.4629 92.2227 21.9746 91.7832 21.3301C91.3535 20.6758 91.0264 19.875 90.8018 18.9277C90.5869 17.9707 90.4795 16.8721 90.4795 15.6318ZM94.5811 14.5771V15.6318C94.5811 16.374 94.6152 17.0137 94.6836 17.5508C94.7617 18.0781 94.8838 18.5127 95.0498 18.8545C95.2256 19.1865 95.4551 19.4355 95.7383 19.6016C96.0215 19.7578 96.373 19.8359 96.793 19.8359C97.3398 19.8359 97.7842 19.6992 98.126 19.4258C98.4678 19.1426 98.7217 18.7568 98.8877 18.2686C99.0635 17.7705 99.1611 17.1992 99.1807 16.5547V13.7861C99.1611 13.249 99.0977 12.7656 98.9902 12.3359C98.8828 11.9062 98.7314 11.54 98.5361 11.2373C98.3408 10.9346 98.0967 10.7002 97.8037 10.5342C97.5205 10.3682 97.1885 10.2852 96.8076 10.2852C96.3975 10.2852 96.0459 10.3682 95.7529 10.5342C95.4697 10.7002 95.2451 10.959 95.0791 11.3105C94.9131 11.6523 94.7861 12.0967 94.6982 12.6436C94.6201 13.1807 94.5811 13.8252 94.5811 14.5771ZM112.936 18.7227C112.936 18.4492 112.843 18.2051 112.657 17.9902C112.472 17.7754 112.179 17.5557 111.778 17.3311C111.378 17.0967 110.846 16.8379 110.182 16.5547C109.459 16.2617 108.819 15.959 108.263 15.6465C107.706 15.334 107.232 14.9873 106.842 14.6064C106.461 14.2256 106.173 13.791 105.978 13.3027C105.782 12.8145 105.685 12.2578 105.685 11.6328C105.685 10.959 105.807 10.3389 106.051 9.77246C106.305 9.19629 106.666 8.69336 107.135 8.26367C107.604 7.82422 108.175 7.48242 108.849 7.23828C109.532 6.98438 110.299 6.85742 111.148 6.85742C112.34 6.85742 113.36 7.06738 114.21 7.4873C115.069 7.89746 115.729 8.47363 116.188 9.21582C116.646 9.95801 116.876 10.8223 116.876 11.8086H112.774C112.774 11.457 112.721 11.1445 112.613 10.8711C112.506 10.5879 112.33 10.3682 112.086 10.2119C111.852 10.0557 111.534 9.97754 111.134 9.97754C110.841 9.97754 110.577 10.041 110.343 10.168C110.118 10.2949 109.938 10.4658 109.801 10.6807C109.674 10.8857 109.61 11.1299 109.61 11.4131C109.61 11.6279 109.654 11.8184 109.742 11.9844C109.84 12.1504 109.991 12.3115 110.196 12.4678C110.401 12.624 110.675 12.79 111.017 12.9658C111.368 13.1318 111.798 13.3174 112.306 13.5225C113.36 13.9131 114.225 14.333 114.898 14.7822C115.582 15.2314 116.09 15.7588 116.422 16.3643C116.754 16.96 116.92 17.6973 116.92 18.5762C116.92 19.2793 116.783 19.9189 116.51 20.4951C116.246 21.0713 115.86 21.5693 115.353 21.9893C114.845 22.4092 114.234 22.7314 113.521 22.9561C112.818 23.1807 112.032 23.293 111.163 23.293C109.884 23.293 108.805 23.0391 107.926 22.5312C107.047 22.0234 106.383 21.374 105.934 20.583C105.484 19.7822 105.26 18.9521 105.26 18.0928H109.156C109.176 18.6201 109.273 19.0352 109.449 19.3379C109.635 19.6309 109.884 19.8359 110.196 19.9531C110.509 20.0703 110.855 20.1289 111.236 20.1289C111.617 20.1289 111.93 20.0801 112.174 19.9824C112.428 19.875 112.618 19.7139 112.745 19.499C112.872 19.2744 112.936 19.0156 112.936 18.7227ZM119.864 20.9053C119.864 20.2607 120.079 19.7236 120.509 19.2939C120.938 18.8545 121.52 18.6348 122.252 18.6348C122.984 18.6348 123.565 18.8545 123.995 19.2939C124.425 19.7236 124.64 20.2607 124.64 20.9053C124.64 21.5498 124.425 22.0869 123.995 22.5166C123.565 22.9463 122.984 23.1611 122.252 23.1611C121.52 23.1611 120.938 22.9463 120.509 22.5166C120.079 22.0869 119.864 21.5498 119.864 20.9053Z" fill="white"/>
</svg>
