<svg width="1518" height="1338" viewBox="0 0 1518 1338" fill="none" xmlns="http://www.w3.org/2000/svg">
<g opacity="0.4" filter="url(#filter0_f_30_114)">
<path d="M754.541 103.849C754.934 98.3107 763.066 98.3107 763.459 103.849L788.52 457.1C788.855 461.823 795.34 462.852 797.121 458.465L956.213 66.4384L854.014 472.565C852.849 477.193 858.776 480.18 861.804 476.492L1137.45 140.693L912.244 503.906C909.698 508.012 914.572 512.677 918.563 509.953L1288.02 257.747L958.368 548.897C954.703 552.134 958.15 558.061 962.776 556.476L1395.74 408.119L988.325 604C983.882 606.137 985.662 612.838 990.58 612.487L1451.88 579.626L999.392 664.607C994.532 665.52 994.532 672.48 999.392 673.393L1451.88 758.374L990.58 725.513C985.662 725.162 983.882 731.863 988.326 734L1395.74 929.881L962.776 781.524C958.15 779.939 954.703 785.866 958.368 789.103L1288.02 1080.25L918.563 828.047C914.572 825.323 909.698 829.988 912.244 834.094L1137.45 1197.31L861.804 861.508C858.776 857.82 852.849 860.807 854.014 865.435L956.213 1271.56L797.121 879.535C795.34 875.148 788.855 876.177 788.52 880.9L763.459 1234.15C763.066 1239.69 754.934 1239.69 754.541 1234.15L729.48 880.9C729.145 876.177 722.66 875.148 720.879 879.535L561.787 1271.56L663.986 865.435C665.151 860.807 659.224 857.82 656.196 861.508L380.551 1197.31L605.756 834.094C608.302 829.988 603.428 825.323 599.437 828.047L229.975 1080.25L559.632 789.103C563.297 785.866 559.85 779.939 555.224 781.524L122.258 929.881L529.675 734C534.118 731.863 532.338 725.162 527.42 725.513L66.125 758.374L518.608 673.393C523.468 672.48 523.468 665.52 518.608 664.607L66.125 579.626L527.42 612.487C532.338 612.838 534.118 606.137 529.675 604L122.258 408.119L555.224 556.476C559.85 558.061 563.297 552.134 559.632 548.897L229.975 257.747L599.437 509.953C603.428 512.677 608.302 508.012 605.756 503.906L380.551 140.693L656.196 476.492C659.224 480.18 665.151 477.193 663.986 472.565L561.787 66.4384L720.879 458.465C722.66 462.852 729.145 461.823 729.48 457.1L754.541 103.849Z" fill="#3535FF"/>
</g>
<defs>
<filter id="filter0_f_30_114" x="0.504997" y="0.818413" width="1516.99" height="1336.36" filterUnits="userSpaceOnUse" color-interpolation-filters="sRGB">
<feFlood flood-opacity="0" result="BackgroundImageFix"/>
<feBlend mode="normal" in="SourceGraphic" in2="BackgroundImageFix" result="shape"/>
<feGaussianBlur stdDeviation="32.81" result="effect1_foregroundBlur_30_114"/>
</filter>
</defs>
</svg>
